<?xml version="1.0" standalone="no"?><!DOCTYPE svg PUBLIC "-//W3C//DTD SVG 1.1//EN"
        "http://www.w3.org/Graphics/SVG/1.1/DTD/svg11.dtd">
<svg width="850" height="250" xmlns="http://www.w3.org/2000/svg" version="1.0" preserveAspectRatio="xMidYMid meet" color-interpolation-filters="sRGB">
    <g fill="#000000" class="iconlettersvg-g iconlettersvg">
        <g id="svg_13" stroke="null">
            <g class="tp-name" id="svg_14" stroke="null">
                <g transform="translate(10.6319 82.2913) scale(4 4)" id="svg_15" stroke="null">
                    <g id="svg_16" stroke="null">
                        <g class="name-imagesvg" id="svg_17" stroke="null">
                            <g id="svg_18" stroke="null">
                                <g id="svg_129" stroke="null" x="-1.75" y="-19.5">
                                    <svg x="-1.75" y="-11.75" width="62.69962" height="45" filtersec="colorsb7739318231" class="image-svg-svg primary" id="svg_1" stroke="null">
                                        <g id="svg_2" stroke="null">
                                            <svg viewBox="0 0 32.98 23.67" id="svg_7" stroke="null" xmlns="http://www.w3.org/2000/svg">
                                                <title stroke="null">资源 19</title>
                                                <path fill="#ed6c00" d="m12.85,18.18l-1.61,5.49l-11.24,-23.67l4.22,0l8.63,18.18z" id="svg_10" stroke="null"/>
                                                <path fill="#ed6c00" d="m9.64,18.18l1.6,5.49l6.31,-13.26l-4.22,0l-3.69,7.77z" id="svg_9" stroke="null"/>
                                                <path fill="#59c3e1" d="m18.27,0l4.22,0l-2.92,6.14l-4.21,0l2.91,-6.14zm1.86,18.18l1.61,5.49l11.24,-23.67l-4.21,0l-8.64,18.18z" id="svg_8" stroke="null"/>
                                            </svg>
                                        </g>
                                    </svg>
                                </g>
                                <!---->
                            </g>
                        </g>
                    </g>
                    <g id="svg_24" stroke="null">
                        <g class="name-imagesvg" id="svg_25" stroke="null">
                            <g id="svg_26" stroke="null">
                                <rect fill="#000000" fill-opacity="0" stroke-width="2" x="60.94962" y="-11.75" width="6.57795" height="45" class="image-rect" id="svg_27" stroke="null"/>
                                <g id="svg_131" stroke="null" x="60.94962" y="-19.5">
                                    <svg x="60.94962" y="-11.75" width="6.57795" height="45" filtersec="colorsb1435726585" class="image-svg-svg primary" id="svg_11" stroke="null">
                                        <g id="svg_12" stroke="null">
                                            <svg viewBox="0 0 3.46 23.67" id="svg_21" stroke="null" xmlns="http://www.w3.org/2000/svg">
                                                <title stroke="null">资源 26</title>
                                                <path d="m0,23.67l0,-23.67l3.46,0l0,23.67l-3.46,0z" fill="#3071b9" id="svg_22" stroke="null"/>
                                            </svg>
                                        </g>
                                    </svg>
                                </g>
                                <!---->
                            </g>
                        </g>
                    </g>
                    <g id="svg_31" stroke="null">
                        <g class="name-imagesvg" id="svg_32" stroke="null">
                            <g id="svg_33" stroke="null">
                                <rect fill="#000000" fill-opacity="0" stroke-width="2" x="67.52757" y="-11.75" width="28.45653" height="45" class="image-rect" id="svg_34" stroke="null"/>
                                <g id="svg_133" stroke="null" x="67.52757" y="-19.5">
                                    <svg x="67.52757" y="-11.75" width="28.45653" height="45" filtersec="colorsb5635982983" class="image-svg-svg primary" id="svg_23" stroke="null">
                                        <g id="svg_28" stroke="null">
                                            <svg viewBox="0 0 14.94 23.67" id="svg_37" stroke="null" xmlns="http://www.w3.org/2000/svg">
                                                <title stroke="null">资源 7</title>
                                                <path d="m13.1,4.13a6.93,6.93 0 0 0 -0.77,-1.47a5.32,5.32 0 0 0 -1.33,-1.33a6.54,6.54 0 0 0 -2,-1a9.64,9.64 0 0 0 -2.86,-0.33l-6.14,0l0,3.17l6.08,0c0.19,0 0.5,0 0.94,0.05a3.78,3.78 0 0 1 1.34,0.36a3.19,3.19 0 0 1 1.2,1l3.67,0c-0.02,-0.11 -0.07,-0.28 -0.13,-0.45z" fill="#3071b9" id="svg_69" stroke="null"/>
                                                <path d="m12.76,9.52a5.35,5.35 0 0 0 0.55,-1.25a4,4 0 0 0 0.13,-0.64l-3.51,0a2.93,2.93 0 0 1 -0.54,1.09a2.89,2.89 0 0 1 -1.15,0.81a5,5 0 0 1 -2,0.32l-6.24,0l0,3.15l7.78,0a6,6 0 0 1 1,0.16a3.84,3.84 0 0 1 1,0.43a3.25,3.25 0 0 1 0.88,0.82a4.54,4.54 0 0 1 0.59,1.09a3.34,3.34 0 0 1 0.24,1.24a4.48,4.48 0 0 1 -0.17,1.09a3.32,3.32 0 0 1 -0.66,1.22a4.14,4.14 0 0 1 -1.31,1a4.75,4.75 0 0 1 -2.14,0.41l-7.21,0l0,3.17l7.07,0a9.25,9.25 0 0 0 4,-0.74a6.61,6.61 0 0 0 2.39,-1.79a6.06,6.06 0 0 0 1.19,-2.23a8.4,8.4 0 0 0 0.32,-2.12a6,6 0 0 0 -0.42,-2.36a7.07,7.07 0 0 0 -1,-1.68a5.56,5.56 0 0 0 -1.16,-1.09c-0.39,-0.27 -0.72,-0.47 -1,-0.62c0.19,-0.17 0.41,-0.38 0.65,-0.63a4.28,4.28 0 0 0 0.72,-0.85z" fill="#eb6ea5" id="svg_39" stroke="null"/>
                                                <path fill="#eb6ea5" d="m0,9.85l3.34,0l0,13.82l-3.34,0l0,-13.82z" id="svg_38" stroke="null"/>
                                            </svg>
                                        </g>
                                    </svg>
                                </g>
                                <!---->
                            </g>
                        </g>
                    </g>
                    <g id="svg_40" stroke="null">
                        <g class="name-imagesvg" id="svg_41" stroke="null">
                            <g id="svg_42" stroke="null">
                                <rect fill="#000000" fill-opacity="0" stroke-width="2" x="95.9841" y="-11.75" width="22.45247" height="45" class="image-rect" id="svg_43" stroke="null"/>
                                <g id="svg_135" stroke="null" x="95.9841" y="-19.5">
                                    <svg x="95.9841" y="-11.75" width="22.45247" height="45" filtersec="colorsb3999984236" class="image-svg-svg primary" id="svg_70" stroke="null">
                                        <g id="svg_71" stroke="null">
                                            <svg viewBox="0 0 11.81 23.67" id="svg_76" stroke="null" xmlns="http://www.w3.org/2000/svg">
                                                <title stroke="null">资源 2</title>
                                                <path fill="#e6002d" d="m0,0l3.45,0l0,5.87l-3.45,0l0,-5.87z" id="svg_79" stroke="null"/>
                                                <path d="m0,23.67l0,-12.1l3.46,0l0,8.93l8.21,3.17l-11.67,0z" fill="#ed6c00" id="svg_78" stroke="null"/>
                                                <path fill="#ed6c00" d="m0,19.87l11.81,0l0,3.8l-11.81,0l0,-3.8z" id="svg_77" stroke="null"/>
                                            </svg>
                                        </g>
                                    </svg>
                                </g>
                                <!---->
                            </g>
                        </g>
                    </g>
                    <g id="svg_49" stroke="null">
                        <g class="name-imagesvg" id="svg_50" stroke="null">
                            <g id="svg_51" stroke="null">
                                <rect fill="#000000" fill-opacity="0" stroke-width="2" x="118.43657" y="-11.75" width="44.96596" height="45" class="image-rect" id="svg_52" stroke="null"/>
                                <g id="svg_137" stroke="null" x="118.43657" y="-19.5">
                                    <svg x="118.43657" y="-11.75" width="44.96596" height="45" filtersec="colorsb4745770870" class="image-svg-svg primary" id="svg_80" stroke="null">
                                        <g id="svg_81" stroke="null">
                                            <svg viewBox="0 0 24.63 24.61" id="svg_85" stroke="null" xmlns="http://www.w3.org/2000/svg">
                                                <title stroke="null">资源 8</title>
                                                <path d="m1,7.58a12,12 0 0 0 -1,4.61a12.25,12.25 0 0 0 3.65,8.81l2.24,-2.24a8.28,8.28 0 0 1 -2.54,-6.86a9.36,9.36 0 0 1 0.93,-3.28a9.74,9.74 0 0 1 1.86,-2.62a9.48,9.48 0 0 1 2.49,-1.78a9.17,9.17 0 0 1 3.21,-0.93a8.59,8.59 0 0 1 3.52,0.38a8.17,8.17 0 0 1 3.42,2.18a8.49,8.49 0 0 1 2.22,3.41a8.83,8.83 0 0 1 0.38,3.53a9.26,9.26 0 0 1 -0.99,3.21a9.77,9.77 0 0 1 -1.79,2.53l2.4,2.47a12,12 0 0 0 2.64,-3.94a12.38,12.38 0 0 0 0.1,-9.27a11.76,11.76 0 0 0 -2.74,-4.18a11.73,11.73 0 0 0 -4.14,-2.74a12.71,12.71 0 0 0 -4.67,-0.87a12.27,12.27 0 0 0 -4.58,0.92a11.77,11.77 0 0 0 -3.94,2.62a12.52,12.52 0 0 0 -2.67,4.04z" fill="#e6002d" id="svg_87" stroke="null"/>
                                                <path d="m11.84,21.32a9.87,9.87 0 0 1 -2,-0.43l-0.84,3.27a12.66,12.66 0 0 0 3.19,0.45a12.71,12.71 0 0 0 3.29,-0.44l-0.91,-3a8.74,8.74 0 0 1 -2.73,0.15z" fill="#faf054" id="svg_86" stroke="null"/>
                                            </svg>
                                        </g>
                                    </svg>
                                </g>
                                <!---->
                            </g>
                        </g>
                    </g>
                    <g id="svg_57" stroke="null">
                        <g class="name-imagesvg" id="svg_58" stroke="null">
                            <g id="svg_59" stroke="null">
                                <rect fill="#000000" fill-opacity="0" stroke-width="2" x="163.40254" y="-11.75" width="44.54231" height="45" class="image-rect" id="svg_60" stroke="null"/>
                                <g id="svg_139" stroke="null" x="163.40254" y="-19.5">
                                    <svg x="163.40254" y="-11.75" width="44.54231" height="45" filtersec="colorsb55431847" class="image-svg-svg primary" id="svg_88" stroke="null">
                                        <g id="svg_89" stroke="null">
                                            <svg viewBox="0 0 24.34 24.57" id="svg_93" stroke="null" xmlns="http://www.w3.org/2000/svg">
                                                <title stroke="null">资源 23</title>
                                                <path d="m23.91,15.51a13.18,13.18 0 0 0 0.43,-3.16l-15,0l0,3.16l14.57,0z" fill="#ed6c00" id="svg_95" stroke="null"/>
                                                <path d="m9,20.71a9.1,9.1 0 0 1 -2.8,-1.89a9.38,9.38 0 0 1 -2,-2.86a8.52,8.52 0 0 1 -0.75,-3.61a9.45,9.45 0 0 1 2.55,-6.45a8.93,8.93 0 0 1 2.78,-2a8.2,8.2 0 0 1 3.46,-0.73a7.27,7.27 0 0 1 2.33,0.35a8.36,8.36 0 0 1 1.83,0.86a9.18,9.18 0 0 1 1.36,1.06c0.37,0.36 0.68,0.68 0.94,1l4,0a12,12 0 0 0 -2.06,-2.8a12.49,12.49 0 0 0 -2.59,-2a12.22,12.22 0 0 0 -2.92,-1.24a11.87,11.87 0 0 0 -3,-0.4a11.7,11.7 0 0 0 -4.81,1a12,12 0 0 0 -3.83,2.63a12.44,12.44 0 0 0 -3.49,8.72a12,12 0 0 0 0.93,4.7a12.59,12.59 0 0 0 2.54,3.89a12.09,12.09 0 0 0 3.84,2.65a11.82,11.82 0 0 0 4.81,1l0,-3.2a8.26,8.26 0 0 1 -3.12,-0.68z" fill="#e6002d" id="svg_94" stroke="null"/>
                                            </svg>
                                        </g>
                                    </svg>
                                </g>
                                <!---->
                            </g>
                        </g>
                    </g>
                </g>
            </g>
        </g>
    </g>

</svg>
